:SAMPLES-PER-SECOND 30
:FULLY-SPECIFIED
:DEGREES
530
root  -40.7158 36.7177 -2.31799 146.828 -84.1868 -160.007
RightUpLeg  -12.7027 -0.957822 -0.0176302
RightLeg  46.1603 -1.88052 -2.44605
RightFoot  -17.3531 -0.261035 -2.71134
RightToes  -3.0268e-009 0 -3.6325e-017
Spine  20.0485 -0.294682 12.6245
Spine1  2.23179 2.618 -1.76941
HEad  -17.4759 -1.08249 -4.77924
LeftShoulder1  -0.369759 4.51597 -30.4157
LeftArm  9.17523 16.5217 -39.6468
LeftForeArm  31.4427 -27.5391 -4.31471
LeftHand  -0.10745 9.19568 -1.09898
RightShoulder  -0.68431 -5.62788 25.5082
RightArm  -2.0696 12.813 46.2916
RightForeArm  18.3225 45.4823 10.1277
RightHand  -0.73527 8.62947 -6.45041
LeftUpLeg  -30.28 6.90137 3.66344
LeftLeg  72.9759 -2.85583 -9.46149
LeftFoot  2.24663 0.584548 -4.99707
LeftToes  2.52475e-009 -1.26109e-010 3.16044e-011
531
root  -42.3673 37.3676 -2.2945 154.113 -85.7912 -166.442
RightUpLeg  -8.64152 -0.808805 -1.55631
RightLeg  42.6094 -2.62685 -2.9071
RightFoot  -18.2338 -0.239753 -1.93495
RightToes  -3.0268e-009 0 -3.6325e-017
Spine  18.2603 0.333343 12.3785
Spine1  2.40006 3.1188 -3.06565
HEad  -18.4398 -2.94812 -4.3744
LeftShoulder1  -0.427312 4.64971 -31.1466
LeftArm  5.12622 17.7012 -37.1727
LeftForeArm  25.3807 -20.0553 -4.16668
LeftHand  -0.323976 13.611 -3.46356
RightShoulder  -0.579997 -5.37909 24.193
RightArm  -3.79765 14.5175 45.8332
RightForeArm  18.4901 51.7723 12.8416
RightHand  -0.784706 8.63566 -6.85704
LeftUpLeg  -30.5135 6.78754 2.45545
LeftLeg  62.4008 -4.61155 -9.00054
LeftFoot  0.412296 0.480799 -4.71188
LeftToes  2.52475e-009 -1.26109e-010 3.16044e-011
532
root  -43.9869 37.9363 -2.25124 158.877 -87.2904 -170.397
RightUpLeg  -4.24962 -1.54496 -2.68207
RightLeg  38.2606 -3.07314 -2.88715
RightFoot  -18.869 -0.194902 -1.01725
RightToes  -3.0268e-009 0 -3.6325e-017
Spine  16.5769 0.694298 12.3075
Spine1  2.6583 3.44508 -4.52771
HEad  -18.9159 -4.33705 -4.03427
LeftShoulder1  -0.399175 4.58923 -30.64
LeftArm  -4.4184 20.0732 -35.0364
LeftForeArm  25.0121 -15.0457 -5.4688
LeftHand  -0.123939 11.5063 -0.965893
RightShoulder  -0.616341 -5.46941 24.596
RightArm  -3.32108 16.9134 43.6576
RightForeArm  21.1083 57.3634 15.8485
RightHand  -0.786158 8.12034 -7.10748
LeftUpLeg  -29.2738 6.46515 1.81689
LeftLeg  49.1976 -5.4534 -6.38038
LeftFoot  -0.211745 0.534996 -5.47079
LeftToes  2.52475e-009 -1.26109e-010 3.16044e-011
533
root  -45.6004 38.4223 -2.18996 166.613 -87.8436 -176.89
RightUpLeg  -0.403521 -1.33961 -3.31533
RightLeg  33.5784 -3.54572 -2.78902
RightFoot  -19.0289 -0.133764 -0.0729076
RightToes  -3.0268e-009 0 -3.6325e-017
Spine  14.8021 1.45104 12.2538
Spine1  2.77875 4.16454 -5.99908
HEad  -18.6013 -5.1236 -3.901
LeftShoulder1  -0.462489 4.76602 -30.4914
LeftArm  -7.24726 22.5252 -32.4389
LeftForeArm  24.7949 -12.3469 -5.52644
LeftHand  0.0085968 10.2993 1.43475
RightShoulder  -0.740416 -5.81583 25.3798
RightArm  -2.23347 19.1398 40.7195
RightForeArm  23.4447 61.8048 19.1211
RightHand  -0.787303 7.6549 -7.3472
LeftUpLeg  -27.1618 6.20629 1.64436
LeftLeg  34.269 -5.48171 -3.62965
LeftFoot  0.599588 0.604427 -5.80809
LeftToes  2.52475e-009 -1.26109e-010 3.16044e-011
534
root  -47.2273 38.6982 -2.08036 160.514 -87.7321 -169.842
RightUpLeg  3.49029 -0.794279 -3.16455
RightLeg  29.2178 -3.99953 -2.66788
RightFoot  -19.2886 -0.0852485 0.650557
RightToes  -3.0268e-009 0 -3.6325e-017
Spine  13.2848 2.13278 12.5195
Spine1  3.05565 4.84444 -6.85538
HEad  -18.1719 -5.56694 -3.79008
LeftShoulder1  -0.448435 4.7363 -30.2361
LeftArm  -6.73745 26.2335 -30.2629
LeftForeArm  24.1662 -13.1958 -5.14406
LeftHand  -0.0995627 10.9202 -0.82035
RightShoulder  -0.729232 -5.78218 25.3478
RightArm  -1.26297 20.5613 38.4166
RightForeArm  26.1585 65.1887 22.3306
RightHand  -0.738676 7.22064 -7.13711
LeftUpLeg  -24.4872 5.20404 2.64064
LeftLeg  20.7976 -5.99742 -2.1851
LeftFoot  1.09728 0.665211 -6.16044
LeftToes  2.52475e-009 -1.26109e-010 3.16044e-011
